<?xml version="1.0" encoding="UTF-8" standalone="no"?>
<!DOCTYPE svg PUBLIC "-//W3C//DTD SVG 1.1//EN" "http://www.w3.org/Graphics/SVG/1.1/DTD/svg11.dtd">
<svg xmlns:xl="http://www.w3.org/1999/xlink" version="1.1" xmlns="http://www.w3.org/2000/svg" xmlns:dc="http://purl.org/dc/elements/1.1/" viewBox="567 231 58 57" width="58" height="57">
  <defs/>
  <g id="Canvas_1" stroke-opacity="1" stroke="none" stroke-dasharray="none" fill-opacity="1" fill="none">
    <title>Canvas 1</title>
    <g id="Canvas_1_Layer_1">
      <title>Layer 1</title>
      <g id="Graphic_11">
        <path d="M 595.852 287.5041 C 611.30765 287.5041 624.1041 274.67985 624.1041 259.25202 C 624.1041 243.7965 611.27985 231 595.8243 231 C 580.3965 231 567.6 243.7965 567.6 259.25202 C 567.6 274.67985 580.4242 287.5041 595.852 287.5041 Z M 595.852 282.7953 C 582.7785 282.7953 572.3364 272.32545 572.3364 259.25202 C 572.3364 246.17853 582.75085 235.70868 595.8243 235.70868 C 608.89766 235.70868 619.3953 246.17853 619.3953 259.25202 C 619.3953 272.32545 608.92546 282.7953 595.852 282.7953 Z M 596.3783 276.75714 C 597.4862 276.75714 598.2894 275.8155 598.8433 274.34744 L 608.9808 247.84042 C 609.2579 247.12026 609.3963 246.5109 609.3963 245.98464 C 609.3963 244.98751 608.81456 244.40585 607.8176 244.40585 C 607.2912 244.40585 606.68196 244.54435 605.9618 244.82134 L 579.3163 255.01422 C 578.0422 255.48507 577.04505 256.28833 577.04505 257.39624 C 577.04505 258.80885 578.09756 259.2797 579.5933 259.75052 L 587.9858 262.27112 C 588.9829 262.60354 589.5369 262.57574 590.2016 261.9665 L 607.125 246.09545 C 607.319 245.90156 607.5405 245.95696 607.7067 246.09545 C 607.9007 246.23392 607.9007 246.4832 607.7067 246.6771 L 591.9189 263.6836 C 591.30955 264.32062 591.2541 264.81924 591.5311 265.87178 L 594.02395 274.04282 C 594.5225 275.6215 594.938 276.75714 596.3783 276.75714 Z" fill="white" fill-opacity=".85"/>
      </g>
    </g>
  </g>
</svg>
